HIERARCHY
ROOT hip
{
  OFFSET 0 0 0
  CHANNELS 6 Xposition Yposition Zposition Zrotation Yrotation Xrotation
  JOINT abdomen
  {
    OFFSET 0 20.6881 -0.73152
    CHANNELS 3 Zrotation Xrotation Yrotation
    JOINT chest
    {
      OFFSET 0 11.7043 -0.48768
      CHANNELS 3 Zrotation Xrotation Yrotation
      JOINT neck
      {
        OFFSET 0 22.1894 -2.19456
        CHANNELS 3 Zrotation Xrotation Yrotation
        JOINT head
        {
          OFFSET -0.24384 7.07133 1.2192
          CHANNELS 3 Zrotation Xrotation Yrotation
          JOINT leftEye
          {
            OFFSET 4.14528 8.04674 8.04672
            CHANNELS 3 Zrotation Xrotation Yrotation
            End Site
            {
              OFFSET 1 0 0
            }
          }
          JOINT rightEye
          {
            OFFSET -3.6576 8.04674 8.04672
            CHANNELS 3 Zrotation Xrotation Yrotation
            End Site
            {
              OFFSET 1 0 0
            }
          }
        }
      }
      JOINT rCollar
      {
        OFFSET -2.68224 19.2634 -4.8768
        CHANNELS 3 Zrotation Xrotation Yrotation
        JOINT rShldr
        {
          OFFSET -8.77824 -1.95073 1.46304
          CHANNELS 3 Zrotation Xrotation Yrotation
          JOINT rForeArm
          {
            OFFSET -28.1742 -1.7115 0.48768
            CHANNELS 3 Zrotation Xrotation Yrotation
            JOINT rHand
            {
              OFFSET -22.5879 0.773209 7.07136
              CHANNELS 3 Zrotation Xrotation Yrotation
              JOINT rThumb1
              {
                OFFSET -1.2192 -0.487915 3.41376
                CHANNELS 3 Zrotation Xrotation Yrotation
                JOINT rThumb2
                {
                  OFFSET -3.37035 -0.52449 3.41376
                  CHANNELS 3 Zrotation Xrotation Yrotation
                  End Site
                  {
                    OFFSET -1.78271 -1.18214 1.43049
                  }
                }
              }
              JOINT rIndex1
              {
                OFFSET -7.75947 0.938293 5.60832
                CHANNELS 3 Zrotation Xrotation Yrotation
                JOINT rIndex2
                {
                  OFFSET -2.54057 -0.884171 1.56538
                  CHANNELS 3 Zrotation Xrotation Yrotation
                  End Site
                  {
                    OFFSET -1.62519 -0.234802 1.16502
                  }
                }
              }
              JOINT rMid1
              {
                OFFSET -8.24714 1.18213 3.41376
                CHANNELS 3 Zrotation Xrotation Yrotation
                JOINT rMid2
                {
                  OFFSET -3.10165 -0.590103 1.0647
                  CHANNELS 3 Zrotation Xrotation Yrotation
                  End Site
                  {
                    OFFSET -2.48547 -0.328903 0.83742
                  }
                }
              }
              JOINT rRing1
              {
                OFFSET -8.82822 0.546677 1.51678
                CHANNELS 3 Zrotation Xrotation Yrotation
                JOINT rRing2
                {
                  OFFSET -2.60934 -0.819778 -0.0198488
                  CHANNELS 3 Zrotation Xrotation Yrotation
                  End Site
                  {
                    OFFSET -2.33842 -0.294052 0.168128
                  }
                }
              }
              JOINT rPinky1
              {
                OFFSET -8.27202 -0.0477905 -0.4584
                CHANNELS 3 Zrotation Xrotation Yrotation
                JOINT rPinky2
                {
                  OFFSET -1.82734 -0.647385 -0.700984
                  CHANNELS 3 Zrotation Xrotation Yrotation
                  End Site
                  {
                    OFFSET -1.69225 -0.51767 -0.607171
                  }
                }
              }
            }
          }
        }
      }
      JOINT lCollar
      {
        OFFSET 2.68224 19.2634 -4.8768
        CHANNELS 3 Zrotation Xrotation Yrotation
        JOINT lShldr
        {
          OFFSET 8.77824 -1.95073 1.46304
          CHANNELS 3 Zrotation Xrotation Yrotation
          JOINT lForeArm
          {
            OFFSET 28.1742 -1.7115 0.48768
            CHANNELS 3 Zrotation Xrotation Yrotation
            JOINT lHand
            {
              OFFSET 22.5879 0.773209 7.07136
              CHANNELS 3 Zrotation Xrotation Yrotation
              JOINT lThumb1
              {
                OFFSET 1.2192 -0.487915 3.41376
                CHANNELS 3 Zrotation Xrotation Yrotation
                JOINT lThumb2
                {
                  OFFSET 3.37035 -0.52449 3.41376
                  CHANNELS 3 Zrotation Xrotation Yrotation
                  End Site
                  {
                    OFFSET 1.78271 -1.18214 1.43049
                  }
                }
              }
              JOINT lIndex1
              {
                OFFSET 7.75947 0.938293 5.60832
                CHANNELS 3 Zrotation Xrotation Yrotation
                JOINT lIndex2
                {
                  OFFSET 2.54057 -0.884171 1.56538
                  CHANNELS 3 Zrotation Xrotation Yrotation
                  End Site
                  {
                    OFFSET 1.62519 -0.234802 1.16502
                  }
                }
              }
              JOINT lMid1
              {
                OFFSET 8.24714 1.18213 3.41376
                CHANNELS 3 Zrotation Xrotation Yrotation
                JOINT lMid2
                {
                  OFFSET 3.10165 -0.590103 1.0647
                  CHANNELS 3 Zrotation Xrotation Yrotation
                  End Site
                  {
                    OFFSET 2.48547 -0.328903 0.83742
                  }
                }
              }
              JOINT lRing1
              {
                OFFSET 8.82822 0.546677 1.51678
                CHANNELS 3 Zrotation Xrotation Yrotation
                JOINT lRing2
                {
                  OFFSET 2.60934 -0.819778 -0.0198488
                  CHANNELS 3 Zrotation Xrotation Yrotation
                  End Site
                  {
                    OFFSET 2.33842 -0.294052 0.168128
                  }
                }
              }
              JOINT lPinky1
              {
                OFFSET 8.27202 -0.0477905 -0.4584
                CHANNELS 3 Zrotation Xrotation Yrotation
                JOINT lPinky2
                {
                  OFFSET 1.82734 -0.647385 -0.700984
                  CHANNELS 3 Zrotation Xrotation Yrotation
                  End Site
                  {
                    OFFSET 1.69225 -0.51767 -0.607171
                  }
                }
              }
            }
          }
        }
      }
    }
  }
  JOINT rButtock
  {
    OFFSET -8.77824 4.35084 1.2192
    CHANNELS 3 Zrotation Xrotation Yrotation
    JOINT rThigh
    {
      OFFSET 0 -1.70687 -2.19456
      CHANNELS 3 Zrotation Xrotation Yrotation
      JOINT rShin
      {
        OFFSET 0 -36.8199 0.73152
        CHANNELS 3 Zrotation Xrotation Yrotation
        JOINT rFoot
        {
          OFFSET 0.73152 -45.1104 -5.12064
          CHANNELS 3 Zrotation Xrotation Yrotation
          End Site
          {
            OFFSET -1.1221 -3.69964 12.103
          }
        }
      }
    }
  }
  JOINT lButtock
  {
    OFFSET 8.77824 4.35084 1.2192
    CHANNELS 3 Zrotation Xrotation Yrotation
    JOINT lThigh
    {
      OFFSET 0 -1.70687 -2.19456
      CHANNELS 3 Zrotation Xrotation Yrotation
      JOINT lShin
      {
        OFFSET 0 -36.8199 0.73152
        CHANNELS 3 Zrotation Xrotation Yrotation
        JOINT lFoot
        {
          OFFSET -0.73152 -45.1104 -5.12064
          CHANNELS 3 Zrotation Xrotation Yrotation
          End Site
          {
            OFFSET 1.1221 -3.69964 12.103
          }
        }
      }
    }
  }
}
MOTION
Frames:	6
Frame Time:	0.03333
2.1601600314170355 46.298399567604065 18.14900012977887 -17.55560302734375 -24.365787506103516 16.26230239868164 11.227097511291504 5.068138599395752 3.9449009895324707 1.7806079387664795 -7.444094657897949 0.980298638343811 -0.24432730674743652 11.993301391601562 6.338047027587891 6.185578346252441 -24.202598571777344 13.926294326782227 -0.0 0.0 -0.0 -0.0 0.0 -0.0 -0.0 -0.0 -0.0 107.3080062866211 46.20220184326172 -57.150291442871094 -27.361003875732422 -42.95879364013672 89.4205093383789 -8.769963264465332 -61.16090393066406 -14.787164688110352 -0.0 0.0 0.0 -0.0 0.0 0.0 -0.0 0.0 0.0 7.730902194976807 5.47491455078125 0.4173222780227661 -0.0 0.0 0.0 2.905566453933716 0.9650754332542419 0.10300818830728531 -0.0 0.0 0.0 10.278596878051758 0.7318810820579529 0.026273518800735474 -0.0 0.0 0.0 2.221662998199463 -0.7334509491920471 -0.20832103490829468 -0.0 -0.0 -0.0 -62.86879348754883 -22.031105041503906 -79.51589965820312 7.363302707672119 -2.6915576457977295 -12.942803382873535 12.4952974319458 66.5533676147461 -18.922691345214844 0.0 0.0 -0.0 0.0 0.0 -0.0 0.0 0.0 -0.0 -7.730902194976807 5.47491455078125 -0.4173222780227661 0.0 0.0 -0.0 -2.905566453933716 0.9650754332542419 -0.10300818830728531 0.0 0.0 -0.0 -10.278596878051758 0.7318810820579529 -0.026273518800735474 0.0 0.0 -0.0 -2.221662998199463 -0.7334509491920471 0.20832103490829468 -0.0 0.0 -0.0 -11.988091468811035 12.960912704467773 -4.7161784172058105 0.12324436753988266 29.73750877380371 2.67193865776062 -8.126495361328125 -16.191999435424805 -32.79690170288086 0.0 0.0 0.0 98.41539764404297 -55.31740951538086 87.20530700683594 7.539682388305664 82.02801513671875 -6.882823944091797 -1.8375957012176514 -0.8797268271446228 -12.574992179870605
2.1670100311894203 46.26710116863251 18.198000130360015 -17.512401580810547 -24.405094146728516 16.261503219604492 11.215195655822754 5.0433125495910645 3.9831433296203613 1.7487609386444092 -7.45082426071167 0.9889503717422485 -0.2202845811843872 11.920480728149414 6.32710075378418 6.1718010902404785 -24.11861228942871 13.895378112792969 -0.0 0.0 -0.0 -0.0 0.0 -0.0 -0.0 -0.0 -0.0 107.3290023803711 46.13071060180664 -57.08868408203125 -27.362098693847656 -42.95610046386719 89.4148941040039 -8.717865943908691 -61.065303802490234 -14.727683067321777 -0.0 0.0 0.0 -0.0 0.0 0.0 -0.0 0.0 0.0 7.730902194976807 5.47491455078125 0.4173222780227661 -0.0 0.0 0.0 2.905566453933716 0.9650754332542419 0.10300818830728531 -0.0 0.0 0.0 10.278596878051758 0.7318810820579529 0.026273518800735474 -0.0 0.0 0.0 2.221662998199463 -0.7334509491920471 -0.20832103490829468 -0.0 -0.0 -0.0 -62.759490966796875 -21.9945011138916 -79.48458862304688 7.3685712814331055 -2.6937506198883057 -12.9520845413208 12.428763389587402 66.50127410888672 -18.85910415649414 0.0 0.0 -0.0 0.0 0.0 -0.0 0.0 0.0 -0.0 -7.730902194976807 5.47491455078125 -0.4173222780227661 0.0 0.0 -0.0 -2.905566453933716 0.9650754332542419 -0.10300818830728531 0.0 0.0 -0.0 -10.278596878051758 0.7318810820579529 -0.026273518800735474 0.0 0.0 -0.0 -2.221662998199463 -0.7334509491920471 0.20832103490829468 -0.0 0.0 -0.0 -12.053902626037598 12.985204696655273 -4.724590301513672 0.12338408082723618 29.683000564575195 2.672823190689087 -8.12318229675293 -16.192502975463867 -32.79519271850586 0.0 0.0 0.0 98.48480224609375 -55.24480438232422 87.34790802001953 7.661502361297607 82.13328552246094 -6.998823165893555 -1.854738473892212 -0.9465782642364502 -12.632197380065918
2.174550031122635 46.23149931430817 18.248000132734887 -17.52689552307129 -24.420394897460938 16.321903228759766 11.28199291229248 4.973719120025635 4.006358623504639 1.7024983167648315 -7.4636311531066895 0.9916152358055115 -0.21444138884544373 11.908305168151855 6.329006671905518 6.163567543029785 -24.08879852294922 13.894800186157227 -0.0 0.0 -0.0 -0.0 0.0 -0.0 -0.0 0.0 0.0 107.37001037597656 46.08197784423828 -57.086917877197266 -27.365903854370117 -42.949798583984375 89.39478302001953 -8.667643547058105 -60.972496032714844 -14.670287132263184 -0.0 0.0 0.0 -0.0 0.0 0.0 -0.0 0.0 0.0 7.730902194976807 5.47491455078125 0.4173222780227661 -0.0 0.0 0.0 2.905566453933716 0.9650754332542419 0.10300818830728531 -0.0 0.0 0.0 10.278596878051758 0.7318810820579529 0.026273518800735474 -0.0 0.0 0.0 2.221662998199463 -0.7334509491920471 -0.20832103490829468 -0.0 0.0 0.0 -62.519805908203125 -21.948400497436523 -79.36519622802734 7.392229080200195 -2.7019498348236084 -12.99370288848877 12.196395874023438 66.25237274169922 -18.614418029785156 -0.0 -0.0 -0.0 -0.0 -0.0 -0.0 -0.0 -0.0 -0.0 -7.730902194976807 5.47491455078125 -0.4173222780227661 -0.0 -0.0 -0.0 -2.905566453933716 0.9650754332542419 -0.10300818830728531 -0.0 -0.0 -0.0 -10.278596878051758 0.7318810820579529 -0.026273518800735474 -0.0 -0.0 -0.0 -2.221662998199463 -0.7334509491920471 0.20832103490829468 -0.0 0.0 -0.0 -12.078988075256348 12.990204811096191 -4.740606307983398 0.12436901032924652 29.617502212524414 2.673854112625122 -8.10860538482666 -16.18449592590332 -32.77739715576172 0.0 0.0 0.0 98.6570053100586 -55.17369079589844 87.5491943359375 7.803629398345947 82.25315856933594 -7.136220455169678 -1.872098445892334 -1.0137394666671753 -12.683388710021973
2.1855700313608395 46.21230065822601 18.29900013108272 -17.558792114257812 -24.403898239135742 16.41069984436035 11.361597061157227 4.897166728973389 4.055960655212402 1.6613727807998657 -7.510732173919678 1.0027101039886475 -0.2399582713842392 11.95421028137207 6.319337368011475 6.1632771492004395 -24.0669002532959 13.872199058532715 -0.0 0.0 -0.0 -0.0 0.0 -0.0 -0.0 0.0 0.0 107.43199157714844 45.99817657470703 -57.1428108215332 -27.365392684936523 -42.9459114074707 89.38310241699219 -8.650615692138672 -60.94090270996094 -14.650805473327637 0.0 0.0 0.0 0.0 0.0 0.0 0.0 0.0 0.0 7.730902194976807 5.47491455078125 0.4173222780227661 0.0 0.0 0.0 2.905566453933716 0.9650754332542419 0.10300818830728531 0.0 0.0 0.0 10.278596878051758 0.7318810820579529 0.026273518800735474 0.0 0.0 0.0 2.221662998199463 -0.7334509491920471 -0.20832103490829468 -0.0 0.0 0.0 -62.24079895019531 -21.83690071105957 -79.2094955444336 7.411221504211426 -2.7102949619293213 -13.029417037963867 12.071627616882324 66.07611846923828 -18.469045639038086 0.0 0.0 0.0 0.0 0.0 0.0 0.0 0.0 0.0 -7.730902194976807 5.47491455078125 -0.4173222780227661 0.0 0.0 0.0 -2.905566453933716 0.9650754332542419 -0.10300818830728531 0.0 0.0 0.0 -10.278596878051758 0.7318810820579529 -0.026273518800735474 0.0 0.0 0.0 -2.221662998199463 -0.7334509491920471 0.20832103490829468 -0.0 0.0 -0.0 -12.08830738067627 13.010393142700195 -4.760739326477051 0.1254258006811142 29.513402938842773 2.671771287918091 -8.087813377380371 -16.17850112915039 -32.742103576660156 0.0 0.0 0.0 98.78019714355469 -55.14729309082031 87.69319915771484 7.905717372894287 82.34113311767578 -7.237309455871582 -1.8855607509613037 -1.077365517616272 -12.691092491149902
2.206510030737263 46.199798583984375 18.339000130072236 -17.565900802612305 -24.388896942138672 16.47150421142578 11.45398998260498 4.813444137573242 4.132083892822266 1.6258269548416138 -7.592206954956055 1.0224480628967285 -0.29690325260162354 12.058290481567383 6.298167705535889 6.170960903167725 -24.052892684936523 13.827497482299805 -0.0 0.0 -0.0 -0.0 0.0 -0.0 -0.0 -0.0 -0.0 107.51602172851562 45.87895202636719 -57.256065368652344 -27.360702514648438 -42.94429397583008 89.37969970703125 -8.666436195373535 -60.97039794921875 -14.668863296508789 -0.0 -0.0 -0.0 -0.0 -0.0 -0.0 -0.0 -0.0 -0.0 7.730902194976807 5.47491455078125 0.4173222780227661 -0.0 -0.0 -0.0 2.905566453933716 0.9650754332542419 0.10300818830728531 -0.0 -0.0 -0.0 10.278596878051758 0.7318810820579529 0.026273518800735474 -0.0 -0.0 -0.0 2.221662998199463 -0.7334509491920471 -0.20832103490829468 -0.0 -0.0 -0.0 -61.923404693603516 -21.659404754638672 -79.0194091796875 7.425663471221924 -2.718515396118164 -13.05920696258545 11.991518020629883 65.97850036621094 -18.381338119506836 -0.0 -0.0 -0.0 -0.0 -0.0 -0.0 -0.0 -0.0 -0.0 -7.730902194976807 5.47491455078125 -0.4173222780227661 -0.0 -0.0 -0.0 -2.905566453933716 0.9650754332542419 -0.10300818830728531 -0.0 -0.0 -0.0 -10.278596878051758 0.7318810820579529 -0.026273518800735474 -0.0 -0.0 -0.0 -2.221662998199463 -0.7334509491920471 0.20832103490829468 -0.0 0.0 -0.0 -12.081704139709473 13.045684814453125 -4.784960746765137 0.12634313106536865 29.37059211730957 2.66682505607605 -8.060873985290527 -16.174400329589844 -32.68920135498047 0.0 0.0 0.0 98.85499572753906 -55.16578674316406 87.78079986572266 7.9688591957092285 82.39739227294922 -7.303640842437744 -1.8951199054718018 -1.138283133506775 -12.655394554138184
2.233030031857197 46.184900403022766 18.371000129263848 -17.538101196289062 -24.404104232788086 16.491098403930664 11.477395057678223 4.786964416503906 4.18896484375 1.6091508865356445 -7.654342174530029 1.0381253957748413 -0.3346148729324341 12.115707397460938 6.290926933288574 6.190891265869141 -24.056100845336914 13.81849193572998 -0.0 0.0 -0.0 -0.0 0.0 -0.0 -0.0 -0.0 -0.0 107.57098388671875 45.83964157104492 -57.32213592529297 -27.36000633239746 -42.943599700927734 89.37870788574219 -8.651740074157715 -60.943111419677734 -14.652058601379395 -0.0 -0.0 -0.0 -0.0 -0.0 -0.0 -0.0 -0.0 -0.0 7.730902194976807 5.47491455078125 0.4173222780227661 -0.0 -0.0 -0.0 2.905566453933716 0.9650754332542419 0.10300818830728531 -0.0 -0.0 -0.0 10.278596878051758 0.7318810820579529 0.026273518800735474 -0.0 -0.0 -0.0 2.221662998199463 -0.7334509491920471 -0.20832103490829468 -0.0 -0.0 -0.0 -61.774906158447266 -21.571998596191406 -78.91170501708984 7.430857181549072 -2.7230916023254395 -13.071495056152344 12.047698020935059 66.01023864746094 -18.43011474609375 -0.0 -0.0 -0.0 -0.0 -0.0 -0.0 -0.0 -0.0 -0.0 -7.730902194976807 5.47491455078125 -0.4173222780227661 -0.0 -0.0 -0.0 -2.905566453933716 0.9650754332542419 -0.10300818830728531 -0.0 -0.0 -0.0 -10.278596878051758 0.7318810820579529 -0.026273518800735474 -0.0 -0.0 -0.0 -2.221662998199463 -0.7334509491920471 0.20832103490829468 -0.0 0.0 -0.0 -12.1253023147583 13.051019668579102 -4.773943901062012 0.12675338983535767 29.310791015625 2.6661481857299805 -8.057854652404785 -16.17888832092285 -32.68070983886719 0.0 0.0 0.0 98.88419342041016 -55.16970443725586 87.84700012207031 8.037997245788574 82.45665740966797 -7.374098300933838 -1.9037338495254517 -1.194746971130371 -12.613799095153809
